<svg width="86" height="87" viewBox="0 0 86 87" fill="none" xmlns="http://www.w3.org/2000/svg">
<path d="M43.3077 0.969101C25.6791 0.969101 10.75 15.9828 10.75 33.7687C10.75 52.3931 28.0535 71.4394 39.693 84.8258C39.7374 84.8796 41.6187 86.9691 43.9366 86.9691H44.1423C46.4602 86.9691 48.3281 84.8796 48.375 84.8258C59.2983 72.2685 75.25 51.564 75.25 33.7687C75.25 15.9828 63.6051 0.969101 43.3077 0.969101ZM44.3854 81.2205C44.2913 81.3146 44.1542 81.4195 44.0333 81.5068C43.9096 81.4222 43.7753 81.3147 43.6759 81.2206L42.2703 79.6041C31.2355 66.9445 16.125 49.6089 16.125 33.7687C16.125 18.9028 28.5735 6.34276 43.3077 6.34276C61.6607 6.34276 69.875 20.1162 69.875 33.7687C69.875 45.7939 61.2978 61.7603 44.3854 81.2205ZM43.094 17.2433C34.1889 17.2433 26.969 24.4632 26.969 33.3683C26.969 42.2733 34.1889 49.4933 43.094 49.4933C51.999 49.4933 59.219 42.2733 59.219 33.3683C59.219 24.4632 51.999 17.2433 43.094 17.2433ZM43.094 44.1183C37.1667 44.1183 32.2203 39.1786 32.2203 33.25C32.2203 27.3227 37.043 22.5 42.9703 22.5C48.9016 22.5 53.7203 27.3227 53.7203 33.25C53.723 39.1786 49.0253 44.1183 43.094 44.1183Z" fill="white"/>
</svg>
