<svg width="86" height="86" viewBox="0 0 86 86" fill="none" xmlns="http://www.w3.org/2000/svg">
<path d="M73.6627 20.0471L64.7184 11.1111C63.6266 10.0193 62.1652 9.40625 60.6199 9.40625C59.0746 9.40625 57.6133 10.0109 56.5215 11.1111L46.8885 20.7273C45.7967 21.8191 45.1836 23.2889 45.1836 24.8342C45.1836 26.3879 45.7883 27.8408 46.8885 28.941L54.4135 36.4744C52.6992 40.4686 50.2361 44.0976 47.1572 47.1656C44.075 50.2646 40.4721 52.7086 36.4744 54.4387L28.9494 46.9053C27.8576 45.8135 26.3963 45.2004 24.851 45.2004C24.0888 45.1976 23.3336 45.3469 22.6299 45.6397C21.9261 45.9324 21.2879 46.3627 20.7525 46.9053L11.1111 56.5215C10.0193 57.6133 9.40625 59.083 9.40625 60.6283C9.40625 62.182 10.0109 63.635 11.1111 64.7351L20.0471 73.6711C21.9115 75.5355 24.4814 76.6021 27.1186 76.6021C27.6645 76.6021 28.1936 76.5602 28.7311 76.4678C39.8506 74.6369 50.8861 68.716 59.7969 59.8137C68.6992 50.8945 74.6117 39.859 76.4594 28.7311C76.9885 25.5732 75.9303 22.323 73.6627 20.0471ZM70.5049 27.7316C68.8672 37.6334 63.5426 47.51 55.5221 55.5305C47.5016 63.551 37.6334 68.8756 27.7316 70.5133C26.4887 70.7232 25.2121 70.3033 24.3051 69.4047L15.5287 60.6283L24.8342 51.3144L34.8955 61.3926L34.9711 61.4682L36.7852 60.7963C42.2855 58.774 47.2804 55.5798 51.4235 51.4352C55.5667 47.2906 58.7591 42.2946 60.7795 36.7936L61.4514 34.9795L51.3061 24.8426L60.6115 15.5287L69.3879 24.3051C70.2949 25.2121 70.7148 26.4887 70.5049 27.7316Z" fill="white"/>
</svg>
