<?xml version="1.0" standalone="no"?>
<!DOCTYPE svg PUBLIC "-//W3C//DTD SVG 20010904//EN" "http://www.w3.org/TR/2001/REC-SVG-20010904/DTD/svg10.dtd">
<svg version="1.0" xmlns="http://www.w3.org/2000/svg"
	width="750.000000pt" height="240.000000pt" viewBox="0 0 768.000000 262.000000"
	preserveAspectRatio="xMidYMid meet">
	<g transform="translate(0.000000,250.000000) scale(0.100000,-0.100000)"
		fill="#000" stroke="none">
		<path d="M1120 1944 c-130 -35 -267 -122 -345 -221 -171 -216 -192 -517 -53
-750 73 -123 220 -240 358 -285 89 -29 263 -36 351 -14 182 46 343 172 427
332 133 258 87 559 -118 765 -83 83 -192 145 -305 174 -75 19 -242 19 -315 -1z" />
		<path d="M2900 1862 l-155 -88 -71 -120 c-155 -258 -547 -938 -552 -956 -4
-18 6 -18 218 -16 l221 3 257 440 257 440 0 189 c0 117 -4 191 -10 193 -5 1
-80 -37 -165 -85z" />
		<path d="M4490 1820 c-26 -26 -25 -64 2 -90 28 -25 62 -26 88 0 40 40 11 110
-45 110 -14 0 -34 -9 -45 -20z" />
		<path d="M6152 1824 c-46 -32 -17 -114 41 -114 30 0 69 47 61 73 -16 54 -59
72 -102 41z" />
		<path d="M4290 1570 l0 -260 55 0 55 0 0 260 0 260 -55 0 -55 0 0 -260z" />
		<path d="M5077 1775 c-15 -31 -27 -58 -27 -60 0 -3 22 -5 48 -5 l48 0 27 55
c15 31 27 58 27 60 0 3 -22 5 -48 5 l-48 0 -27 -55z" />
		<path d="M3500 1566 l0 -256 55 0 55 0 0 89 0 88 76 5 c80 5 109 19 148 72 30
39 29 143 0 183 -41 54 -75 66 -210 71 l-124 5 0 -257z m224 138 c9 -8 16 -31
16 -49 0 -47 -22 -65 -81 -65 l-49 0 0 65 0 65 49 0 c32 0 55 -6 65 -16z" />
		<path d="M4700 1736 c0 -38 -21 -66 -51 -66 -16 0 -19 -7 -19 -45 0 -43 1 -45
30 -45 l30 0 0 -87 c0 -142 32 -183 143 -183 l57 0 0 45 c0 44 0 45 -34 45
-48 0 -57 17 -54 102 l3 73 43 3 42 3 0 45 0 44 -45 0 -45 0 0 50 0 50 -50 0
-50 0 0 -34z" />
		<path d="M3965 1656 c-129 -58 -135 -266 -10 -329 80 -40 166 -28 226 32 83
82 72 214 -24 285 -35 26 -147 33 -192 12z m129 -97 c21 -17 26 -29 26 -67 0
-55 -29 -92 -72 -92 -44 0 -68 31 -68 89 0 42 4 53 26 70 15 12 34 21 44 21
10 0 29 -9 44 -21z" />
		<path d="M4480 1490 l0 -180 55 0 55 0 0 180 0 180 -55 0 -55 0 0 -180z" />
		<path d="M5004 1646 c-96 -59 -111 -209 -29 -290 45 -45 120 -64 185 -46 47
13 103 62 113 99 5 19 1 21 -50 21 -41 0 -59 -5 -68 -17 -19 -26 -83 -23 -106
6 -11 13 -19 27 -19 32 0 5 57 9 126 9 l126 0 -4 55 c-8 98 -63 148 -166 153
-58 2 -73 -1 -108 -22z m146 -76 c33 -33 24 -40 -50 -40 -67 0 -70 1 -60 20
23 42 78 52 110 20z" />
		<path d="M5415 1656 c-39 -17 -70 -52 -90 -98 -18 -45 -19 -77 -3 -131 35
-117 194 -164 284 -84 30 26 64 74 64 92 0 3 -26 5 -58 5 -46 0 -61 -4 -75
-21 -13 -14 -27 -19 -50 -17 -26 2 -36 10 -51 41 -16 33 -17 45 -7 78 18 59
71 78 106 39 14 -16 31 -20 76 -20 l59 0 -11 28 c-13 34 -46 70 -81 88 -34 18
-123 18 -163 0z" />
		<path d="M5720 1490 l0 -180 55 0 55 0 0 115 c0 102 2 117 20 135 11 11 30 20
43 20 53 -1 67 -35 67 -164 l0 -106 56 0 56 0 -4 133 c-4 147 -16 185 -68 212
-37 19 -103 19 -140 0 -27 -14 -30 -14 -30 0 0 12 -12 15 -55 15 l-55 0 0
-180z" />
		<path d="M6140 1491 l0 -181 55 0 55 0 -2 178 -3 177 -52 3 -53 3 0 -180z" />
		<path d="M6395 1656 c-64 -29 -95 -84 -95 -172 0 -63 16 -101 60 -138 96 -81
249 -42 284 72 7 21 5 22 -51 22 -47 0 -61 -4 -71 -20 -14 -23 -59 -27 -86 -7
-12 9 -20 31 -23 63 -4 40 -1 54 17 77 26 32 62 35 90 7 15 -15 33 -20 76 -20
53 0 55 1 48 23 -12 38 -42 74 -78 91 -41 19 -129 20 -171 2z" />
		<path d="M6759 1641 c-105 -66 -106 -237 -1 -308 92 -61 229 -26 273 71 41 89
12 196 -65 241 -63 37 -146 35 -207 -4z m152 -80 c20 -16 24 -29 24 -71 0 -42
-4 -55 -24 -71 -32 -26 -67 -24 -98 7 -22 22 -25 32 -20 72 8 74 66 105 118
63z" />
		<path d="M4960 1197 c-32 -16 -40 -70 -14 -98 36 -40 104 -12 104 42 0 50 -46
78 -90 56z" />
		<path d="M3730 1096 l0 -94 -37 20 c-48 24 -118 20 -160 -10 -71 -51 -91 -178
-41 -263 45 -76 135 -102 206 -59 26 16 32 17 32 5 0 -11 13 -15 55 -15 l55 0
0 255 0 255 -55 0 -55 0 0 -94z m-20 -178 c48 -52 12 -148 -57 -148 -48 0 -73
29 -73 85 0 32 6 51 20 65 27 27 83 27 110 -2z" />
		<path d="M4410 1174 c0 -3 39 -116 86 -250 l87 -244 71 0 72 0 84 238 c45 130
85 243 88 250 3 10 -10 12 -58 10 l-63 -3 -58 -179 c-32 -98 -60 -181 -63
-183 -2 -2 -32 79 -66 181 l-62 186 -59 0 c-32 0 -59 -3 -59 -6z" />
		<path d="M4000 1024 c-53 -23 -79 -53 -95 -108 -42 -140 53 -257 196 -244 28
3 62 14 77 25 33 24 74 82 66 94 -10 17 -85 9 -124 -13 -46 -27 -87 -18 -107
22 l-12 25 126 3 125 3 -4 55 c-6 67 -29 101 -88 132 -51 26 -110 28 -160 6z
m127 -86 c7 -6 13 -17 13 -24 0 -11 -17 -14 -66 -14 -57 0 -65 2 -62 17 7 38
80 51 115 21z" />
		<path d="M5175 1026 c-47 -21 -70 -52 -70 -98 0 -53 42 -91 119 -109 65 -14
85 -31 66 -54 -17 -21 -54 -19 -75 5 -14 15 -31 20 -72 20 -29 0 -53 -4 -53
-9 0 -21 49 -78 80 -93 67 -34 179 -17 214 33 20 29 21 88 2 115 -16 22 -68
47 -133 64 -32 8 -43 16 -43 30 0 31 46 37 74 11 16 -15 35 -21 69 -21 53 0
57 8 27 58 -35 56 -133 80 -205 48z" />
		<path d="M5544 1029 c-42 -12 -90 -68 -104 -121 -25 -89 12 -176 90 -216 37
-19 56 -23 104 -19 36 3 69 13 85 25 32 23 73 81 65 93 -10 18 -95 10 -121
-11 -14 -11 -37 -20 -50 -20 -24 0 -73 40 -73 60 0 6 45 10 126 10 l126 0 -4
53 c-10 118 -118 183 -244 146z m99 -80 c22 -12 37 -28 37 -41 0 -5 -32 -8
-70 -8 -68 0 -70 1 -60 21 10 18 40 37 63 38 5 1 18 -4 30 -10z" />
		<path d="M4930 855 l0 -175 55 0 55 0 0 175 0 175 -55 0 -55 0 0 -175z" />
		<path d="M5840 908 c0 -142 17 -196 69 -222 41 -22 99 -20 139 4 26 16 32 17
32 5 0 -11 13 -15 55 -15 l55 0 0 175 0 175 -55 0 -55 0 0 -112 c0 -62 -4
-118 -8 -124 -13 -20 -51 -35 -76 -28 -36 9 -46 44 -46 159 l0 105 -55 0 -55
0 0 -122z" />
	</g>
</svg>
